<?xml version="1.0" encoding="UTF-8"?>
<svg id="Camada_2" data-name="Camada 2" xmlns="http://www.w3.org/2000/svg" viewBox="0 0 1031 188">
  <defs>
    <style>
      .cls-1 {
        fill: none;
        stroke: #000;
        stroke-linecap: round;
        stroke-linejoin: round;
        stroke-width: 2px;
      }
    </style>
  </defs>
  <g id="Camada_1-2" data-name="Camada 1">
    <g>
      <path class="cls-1" d="M582.5,58h-125"/>
      <path class="cls-1" d="M288.5,58h-97"/>
      <path class="cls-1" d="M1002.5,58h-83"/>
      <path class="cls-1" d="M778.5,58h-55"/>
      <path class="cls-1" d="M484.5,145h-55"/>
      <path class="cls-1" d="M106.5,58h-55"/>
      <path class="cls-1" d="M960.5,145h-55"/>
      <path class="cls-1" d="M848.5,58h-41"/>
      <path class="cls-1" d="M988.5,87h-41"/>
      <path class="cls-1" d="M680.5,145h-41"/>
      <path class="cls-1" d="M344.5,145h-41"/>
      <path class="cls-1" d="M764.5,145h-41"/>
      <path class="cls-1" d="M834.5,145h-41"/>
      <path class="cls-1" d="M512.5,87h-41"/>
      <path class="cls-1" d="M246.5,145h-41"/>
      <path class="cls-1" d="M274.5,87h-41"/>
      <path class="cls-1" d="M694.5,58h-41"/>
      <path class="cls-1" d="M785.5,69.5l6.68,13.93c.48-.03.96-.05,1.45-.08,2.29-4.61,4.58-9.23,6.87-13.84"/>
      <path class="cls-1" d="M365.5,69.5l6.68,13.93c.48-.03.96-.05,1.45-.08,2.29-4.61,4.58-9.23,6.87-13.84"/>
      <path class="cls-1" d="M113.5,69.5l6.68,13.93c.48-.03.96-.05,1.45-.08,2.29-4.61,4.58-9.23,6.87-13.84"/>
      <path class="cls-1" d="M701.5,69.5c2.23,4.64,4.46,9.28,6.68,13.93.48-.03.96-.05,1.45-.08,2.29-4.61,4.58-9.23,6.87-13.84"/>
      <path class="cls-1" d="M589.5,69.5l6.68,13.93c.48-.03.96-.05,1.45-.08,2.29-4.61,4.58-9.23,6.87-13.84"/>
      <path class="cls-1" d="M855.5,69.5c2.23,4.64,4.46,9.28,6.68,13.93.48-.03.96-.05,1.45-.08,2.29-4.61,4.58-9.23,6.87-13.84"/>
      <path class="cls-1" d="M764.5,87h-27"/>
      <path class="cls-1" d="M680.5,87h-27"/>
      <path class="cls-1" d="M918.5,29h-27"/>
      <path class="cls-1" d="M148.5,145h-27"/>
      <path class="cls-1" d="M330.5,29h-27"/>
      <path class="cls-1" d="M946.5,116h-27"/>
      <path class="cls-1" d="M470.5,116h-27"/>
      <path class="cls-1" d="M848.5,116h-27"/>
      <path class="cls-1" d="M568.5,87h-27"/>
      <path class="cls-1" d="M162.5,58h-27"/>
      <path class="cls-1" d="M260.5,116h-27"/>
      <path class="cls-1" d="M358.5,58h-27"/>
      <path class="cls-1" d="M358.5,116h-27"/>
      <path class="cls-1" d="M92.5,87h-27"/>
      <path class="cls-1" d="M890.5,145h-27"/>
      <path class="cls-1" d="M918.5,87h-27"/>
      <path class="cls-1" d="M397.5,36.5c-1.33.83-3.07,1.37-3.93,2.55-4.83,6.58-3.05,14.55,3.93,18.45"/>
      <path class="cls-1" d="M418.5,36.5c1.33.83,3.07,1.37,3.93,2.55,4.79,6.52,2.99,14.58-3.93,18.45"/>
      <path class="cls-1" d="M621.5,36.5c-1.33.83-3.07,1.37-3.93,2.55-4.83,6.58-3.05,14.55,3.93,18.45"/>
      <path class="cls-1" d="M642.5,36.5c1.33.83,3.07,1.37,3.93,2.55,4.79,6.52,2.99,14.58-3.93,18.45"/>
      <path class="cls-1" d="M915.5,94.5c-1.33.83-3.07,1.37-3.93,2.55-4.83,6.58-3.05,14.55,3.93,18.45"/>
      <path class="cls-1" d="M439.5,94.5c-1.33.83-3.07,1.37-3.93,2.55-4.83,6.58-3.05,14.55,3.93,18.45"/>
      <path class="cls-1" d="M502.5,94.5c1.33.83,3.07,1.37,3.93,2.55,4.79,6.52,2.99,14.58-3.93,18.45"/>
      <path class="cls-1" d="M978.5,94.5c1.33.83,3.07,1.37,3.93,2.55,4.79,6.52,2.99,14.58-3.93,18.45"/>
      <path class="cls-1" d="M384.5,124.5c-2.33,4.67-4.53,9.41-7.06,13.97-1.13,2.04-2.94,3.7-4.44,5.53"/>
      <path class="cls-1" d="M356.5,124.5c-2.33,4.67-4.53,9.41-7.06,13.97-1.13,2.04-2.94,3.7-4.44,5.53"/>
      <path class="cls-1" d="M291.5,124.5c2.33,4.67,4.53,9.41,7.06,13.97,1.13,2.04,2.94,3.7,4.44,5.53"/>
      <path class="cls-1" d="M286.5,124.5c-2.33,4.67-4.53,9.41-7.06,13.97-1.13,2.04-2.94,3.7-4.44,5.53"/>
      <path class="cls-1" d="M286.5,66.5c-2.33,4.67-4.53,9.41-7.06,13.97-1.13,2.04-2.94,3.7-4.44,5.53"/>
      <path class="cls-1" d="M524.5,66.5c-2.33,4.67-4.53,9.41-7.06,13.97-1.13,2.04-2.94,3.7-4.44,5.53"/>
      <path class="cls-1" d="M930.5,66.5c-2.33,4.67-4.53,9.41-7.06,13.97-1.13,2.04-2.94,3.7-4.44,5.53"/>
      <path class="cls-1" d="M1000.5,66.5c-2.33,4.67-4.53,9.41-7.06,13.97-1.13,2.04-2.94,3.7-4.44,5.53"/>
      <path class="cls-1" d="M258.5,124.5c-2.33,4.67-4.53,9.41-7.06,13.97-1.13,2.04-2.94,3.7-4.44,5.53"/>
      <path class="cls-1" d="M193.5,124.5c2.33,4.67,4.53,9.41,7.06,13.97,1.13,2.04,2.94,3.7,4.44,5.53"/>
      <path class="cls-1" d="M188.5,124.5c-2.33,4.67-4.53,9.41-7.06,13.97-1.13,2.04-2.94,3.7-4.44,5.53"/>
      <path class="cls-1" d="M109.5,124.5c2.33,4.67,4.53,9.41,7.06,13.97,1.13,2.04,2.94,3.7,4.44,5.53"/>
      <path class="cls-1" d="M104.5,124.5c-2.33,4.67-4.53,9.41-7.06,13.97-1.13,2.04-2.94,3.7-4.44,5.53"/>
      <path class="cls-1" d="M48.5,124.5c-2.33,4.67-4.53,9.41-7.06,13.97-1.13,2.04-2.94,3.7-4.44,5.53"/>
      <path class="cls-1" d="M972.5,124.5c-2.33,4.67-4.53,9.41-7.06,13.97-1.13,2.04-2.94,3.7-4.44,5.53"/>
      <path class="cls-1" d="M902.5,124.5c-2.33,4.67-4.53,9.41-7.06,13.97-1.13,2.04-2.94,3.7-4.44,5.53"/>
      <path class="cls-1" d="M851.5,124.5c2.33,4.67,4.53,9.41,7.06,13.97,1.13,2.04,2.94,3.7,4.44,5.53"/>
      <path class="cls-1" d="M781.5,124.5c2.33,4.67,4.53,9.41,7.06,13.97,1.13,2.04,2.94,3.7,4.44,5.53"/>
      <path class="cls-1" d="M860.5,95.5c-2.33,4.67-4.53,9.41-7.06,13.97-1.13,2.04-2.94,3.7-4.44,5.53"/>
      <path class="cls-1" d="M762.5,95.5c-2.33,4.67-4.53,9.41-7.06,13.97-1.13,2.04-2.94,3.7-4.44,5.53"/>
      <path class="cls-1" d="M678.5,95.5c-2.33,4.67-4.53,9.41-7.06,13.97-1.13,2.04-2.94,3.7-4.44,5.53"/>
      <path class="cls-1" d="M370.5,95.5c-2.33,4.67-4.53,9.41-7.06,13.97-1.13,2.04-2.94,3.7-4.44,5.53"/>
      <path class="cls-1" d="M300.5,37.5c-2.33,4.67-4.53,9.41-7.06,13.97-1.13,2.04-2.94,3.7-4.44,5.53"/>
      <path class="cls-1" d="M846.5,124.5c-2.33,4.67-4.53,9.41-7.06,13.97-1.13,2.04-2.94,3.7-4.44,5.53"/>
      <path class="cls-1" d="M272.5,95.5c-2.33,4.67-4.53,9.41-7.06,13.97-1.13,2.04-2.94,3.7-4.44,5.53"/>
      <path class="cls-1" d="M174.5,95.5c-2.33,4.67-4.53,9.41-7.06,13.97-1.13,2.04-2.94,3.7-4.44,5.53"/>
      <path class="cls-1" d="M776.5,124.5c-2.33,4.67-4.53,9.41-7.06,13.97-1.13,2.04-2.94,3.7-4.44,5.53"/>
      <path class="cls-1" d="M692.5,124.5c-2.33,4.67-4.53,9.41-7.06,13.97-1.13,2.04-2.94,3.7-4.44,5.53"/>
      <path class="cls-1" d="M608.5,124.5c-2.33,4.67-4.53,9.41-7.06,13.97-1.13,2.04-2.94,3.7-4.44,5.53"/>
      <path class="cls-1" d="M580.5,124.5c-2.33,4.67-4.53,9.41-7.06,13.97-1.13,2.04-2.94,3.7-4.44,5.53"/>
      <path class="cls-1" d="M524.5,124.5c-2.33,4.67-4.53,9.41-7.06,13.97-1.13,2.04-2.94,3.7-4.44,5.53"/>
      <path class="cls-1" d="M496.5,124.5c-2.33,4.67-4.53,9.41-7.06,13.97-1.13,2.04-2.94,3.7-4.44,5.53"/>
      <path class="cls-1" d="M622.5,153.5c-2.33,4.67-4.53,9.41-7.06,13.97-1.13,2.04-2.94,3.7-4.44,5.53"/>
      <path class="cls-1" d="M706.5,153.5c-2.33,4.67-4.53,9.41-7.06,13.97-1.13,2.04-2.94,3.7-4.44,5.53"/>
      <path class="cls-1" d="M20.5,124.5c-2.33,4.67-4.56,9.39-7.05,13.97-1.01,1.84-2.61,3.36-3.95,5.03"/>
      <path class="cls-1" d="M636.5,66.5c-2.33,4.67-4.56,9.39-7.05,13.97-1.01,1.84-2.61,3.36-3.95,5.03"/>
      <path class="cls-1" d="M888.5,95.5c-2.33,4.67-4.56,9.39-7.05,13.97-1.01,1.84-2.61,3.36-3.95,5.03"/>
      <path class="cls-1" d="M454.5,66.5c-2.33,4.67-4.56,9.39-7.05,13.97-1.01,1.84-2.61,3.36-3.95,5.03"/>
      <path class="cls-1" d="M412.5,66.5c-2.33,4.67-4.56,9.39-7.05,13.97-1.01,1.84-2.61,3.36-3.95,5.03"/>
      <path class="cls-1" d="M790.5,95.5c-2.33,4.67-4.56,9.39-7.05,13.97-1.01,1.84-2.61,3.36-3.95,5.03"/>
      <path class="cls-1" d="M314.5,66.5c-2.33,4.67-4.56,9.39-7.05,13.97-1.01,1.84-2.61,3.36-3.95,5.03"/>
      <path class="cls-1" d="M734.5,95.5c-2.33,4.67-4.56,9.39-7.05,13.97-1.01,1.84-2.61,3.36-3.95,5.03"/>
      <path class="cls-1" d="M706.5,95.5c-2.33,4.67-4.56,9.39-7.05,13.97-1.01,1.84-2.61,3.36-3.95,5.03"/>
      <path class="cls-1" d="M216.5,66.5c-2.33,4.67-4.56,9.39-7.05,13.97-1.01,1.84-2.61,3.36-3.95,5.03"/>
      <path class="cls-1" d="M650.5,95.5c-2.33,4.67-4.56,9.39-7.05,13.97-1.01,1.84-2.61,3.36-3.95,5.03"/>
      <path class="cls-1" d="M622.5,95.5c-2.33,4.67-4.56,9.39-7.05,13.97-1.01,1.84-2.61,3.36-3.95,5.03"/>
      <path class="cls-1" d="M594.5,95.5c-2.33,4.67-4.56,9.39-7.05,13.97-1.01,1.84-2.61,3.36-3.95,5.03"/>
      <path class="cls-1" d="M566.5,95.5c-2.33,4.67-4.56,9.39-7.05,13.97-1.01,1.84-2.61,3.36-3.95,5.03"/>
      <path class="cls-1" d="M538.5,95.5c-2.33,4.67-4.56,9.39-7.05,13.97-1.01,1.84-2.61,3.36-3.95,5.03"/>
      <path class="cls-1" d="M398.5,95.5c-2.33,4.67-4.56,9.39-7.05,13.97-1.01,1.84-2.61,3.36-3.95,5.03"/>
      <path class="cls-1" d="M188.5,66.5c-2.33,4.67-4.56,9.39-7.05,13.97-1.01,1.84-2.61,3.36-3.95,5.03"/>
      <path class="cls-1" d="M300.5,95.5c-2.33,4.67-4.56,9.39-7.05,13.97-1.01,1.84-2.61,3.36-3.95,5.03"/>
      <path class="cls-1" d="M48.5,66.5c-2.33,4.67-4.56,9.39-7.05,13.97-1.01,1.84-2.61,3.36-3.95,5.03"/>
      <path class="cls-1" d="M426.5,124.5c-2.33,4.67-4.56,9.39-7.05,13.97-1.01,1.84-2.61,3.36-3.95,5.03"/>
      <path class="cls-1" d="M552.5,124.5c-2.33,4.67-4.56,9.39-7.05,13.97-1.01,1.84-2.61,3.36-3.95,5.03"/>
      <path class="cls-1" d="M230.5,95.5c-2.33,4.67-4.56,9.39-7.05,13.97-1.01,1.84-2.61,3.36-3.95,5.03"/>
      <path class="cls-1" d="M202.5,95.5c-2.33,4.67-4.56,9.39-7.05,13.97-1.01,1.84-2.61,3.36-3.95,5.03"/>
      <path class="cls-1" d="M160.5,66.5c-2.33,4.67-4.56,9.39-7.05,13.97-1.01,1.84-2.61,3.36-3.95,5.03"/>
      <path class="cls-1" d="M146.5,95.5c-2.33,4.67-4.56,9.39-7.05,13.97-1.01,1.84-2.61,3.36-3.95,5.03"/>
      <path class="cls-1" d="M34.5,95.5c-2.33,4.67-4.56,9.39-7.05,13.97-1.01,1.84-2.61,3.36-3.95,5.03"/>
      <path class="cls-1" d="M62.5,95.5c-2.33,4.67-4.56,9.39-7.05,13.97-1.01,1.84-2.61,3.36-3.95,5.03"/>
      <path class="cls-1" d="M916.5,37.5c-2.33,4.67-4.56,9.39-7.05,13.97-1.01,1.84-2.61,3.36-3.95,5.03"/>
      <path class="cls-1" d="M888.5,37.5c-2.33,4.67-4.56,9.39-7.05,13.97-1.01,1.84-2.61,3.36-3.95,5.03"/>
      <path class="cls-1" d="M328.5,37.5c-2.33,4.67-4.56,9.39-7.05,13.97-1.01,1.84-2.61,3.36-3.95,5.03"/>
      <path class="cls-1" d="M90.5,95.5c-2.33,4.67-4.56,9.39-7.05,13.97-1.01,1.84-2.61,3.36-3.95,5.03"/>
      <path class="cls-1" d="M594.5,153.5c-2.33,4.67-4.56,9.39-7.05,13.97-1.01,1.84-2.61,3.36-3.95,5.03"/>
      <path class="cls-1" d="M118.5,95.5c-2.33,4.67-4.56,9.39-7.05,13.97-1.01,1.84-2.61,3.36-3.95,5.03"/>
      <path class="cls-1" d="M678.5,153.5c-2.33,4.67-4.56,9.39-7.05,13.97-1.01,1.84-2.61,3.36-3.95,5.03"/>
      <path class="cls-1" d="M76.5,124.5c-2.33,4.67-4.56,9.39-7.05,13.97-1.01,1.84-2.61,3.36-3.95,5.03"/>
      <path class="cls-1" d="M904.5,116h-13"/>
      <path class="cls-1" d="M36.5,145h-13"/>
      <path class="cls-1" d="M92.5,145h-13"/>
      <path class="cls-1" d="M176.5,145h-13"/>
      <path class="cls-1" d="M274.5,145h-13"/>
      <path class="cls-1" d="M372.5,145h-13"/>
      <path class="cls-1" d="M414.5,29h-13"/>
      <path class="cls-1" d="M512.5,145h-13"/>
      <path class="cls-1" d="M568.5,145h-13"/>
      <path class="cls-1" d="M596.5,145h-13"/>
      <path class="cls-1" d="M638.5,29h-13"/>
      <path class="cls-1" d="M414.5,58h-13"/>
      <path class="cls-1" d="M638.5,58h-13"/>
      <path class="cls-1" d="M344.5,87h-13"/>
      <path class="cls-1" d="M834.5,87h-13"/>
      <path class="cls-1" d="M694.5,174h-13"/>
      <path class="cls-1" d="M162.5,116h-13"/>
      <path class="cls-1" d="M666.5,116h-13"/>
      <path class="cls-1" d="M750.5,116h-13"/>
      <path class="cls-1" d="M610.5,174h-13"/>
      <path class="cls-1" d="M153.5,139.5c.92.16,1.84.32,3.49.61-1.3,1.81-2.39,3.35-3.49,4.89"/>
    </g>
  </g>
</svg>