<?xml version="1.0" encoding="UTF-8"?>
<svg id="Camada_2" data-name="Camada 2" xmlns="http://www.w3.org/2000/svg" viewBox="0 0 447.1 98">
  <defs>
    <style>
      .cls-1 {
        fill: #9bcc98;
      }

      .cls-1, .cls-2 {
        stroke-width: 0px;
      }

      .cls-3 {
        font-family: Ubuntu-Bold, Ubuntu;
        font-size: 46.16px;
        font-weight: 700;
      }

      .cls-3, .cls-2 {
        fill: #4f225c;
      }
    </style>
  </defs>
  <g id="Camada_1-2" data-name="Camada 1">
    <g>
      <path class="cls-2" d="M80.17,3.13c-3.04,0-5.88.93-8.28,2.55-6.82-3.62-14.61-5.68-22.89-5.68C21.94,0,0,21.94,0,49l.25,5.14,9.75-1.03-.2-4.11c0-21.65,17.55-39.2,39.2-39.2,6.13,0,11.91,1.42,17.15,3.92-.44,1.27-.68,2.64-.68,4.11,0,8.09,6.61,14.7,14.7,14.7s14.7-6.61,14.7-14.7-6.67-14.7-14.7-14.7ZM80.17,22.73c-2.71,0-4.9-2.19-4.9-4.9s2.19-4.9,4.9-4.9,4.9,2.16,4.9,4.9-2.16,4.9-4.9,4.9Z"/>
      <path class="cls-2" d="M97.76,43.85l-9.75,1.03.19,4.12c0,21.65-17.55,39.2-39.2,39.2-6.12,0-11.91-1.42-17.15-3.92.44-1.28.69-2.65.69-4.12,0-8.08-6.62-14.7-14.7-14.7s-14.7,6.62-14.7,14.7,6.66,14.7,14.7,14.7c3.04,0,5.88-.93,8.28-2.55,6.81,3.63,14.6,5.69,22.88,5.69,27.06,0,49-21.94,49-49l-.24-5.15ZM17.84,85.06c-2.75,0-4.9-2.15-4.9-4.9s2.15-4.9,4.9-4.9,4.9,2.2,4.9,4.9-2.2,4.9-4.9,4.9Z"/>
      <circle class="cls-1" cx="49" cy="49" r="26.27"/>
    </g>
    <text class="cls-3" transform="translate(115.19 63.44)"><tspan x="0" y="0">nuclei snippets</tspan></text>
  </g>
</svg>